<?xml version="1.0" standalone="no"?>
<!DOCTYPE svg PUBLIC "-//W3C//DTD SVG 20010904//EN"
 "http://www.w3.org/TR/2001/REC-SVG-20010904/DTD/svg10.dtd">
<svg version="1.0" xmlns="http://www.w3.org/2000/svg"
 width="30px" height="30px" viewBox="0 0 30 30"
 preserveAspectRatio="xMidYMid meet">
<metadata>
Created by potrace 1.15, written by Peter Selinger 2001-2017
</metadata>
<g transform="translate(0.000000,834.000000) scale(0.100000,-0.100000)"
fill="#550000" stroke="none">
<path d="M6650 8334 c-80 -10 -238 -47 -319 -76 -521 -183 -906 -675 -937
-1198 l-5 -85 59 112 c218 410 530 712 846 818 128 43 206 56 376 62 187 6
342 -10 503 -52 510 -132 908 -518 1141 -1105 46 -117 116 -346 116 -381 0
-10 4 -19 9 -19 12 0 21 67 27 220 19 425 -150 887 -436 1193 -233 248 -543
410 -936 487 -105 21 -358 34 -444 24z"/>
<path d="M1285 8045 c-634 -104 -1131 -635 -1261 -1350 -18 -96 -30 -356 -19
-411 l7 -39 32 90 c229 637 576 1075 994 1255 268 116 614 132 897 43 375
-118 645 -461 792 -1007 23 -84 40 -131 45 -123 14 26 29 242 23 337 -13 185
-75 420 -151 571 -44 88 -144 227 -216 301 -158 161 -345 259 -603 318 -121
28 -411 36 -540 15z"/>
<path d="M9494 6830 c-202 -30 -408 -191 -515 -402 -60 -120 -74 -194 -73
-398 0 -151 5 -204 23 -290 87 -414 294 -875 600 -1335 58 -88 107 -162 109
-165 1 -3 -23 -14 -54 -25 -175 -59 -438 -313 -545 -528 -107 -211 -107 -443
0 -654 82 -164 246 -346 364 -404 l62 -31 1 -151 c1 -397 145 -750 413 -1017
199 -198 439 -325 731 -387 122 -26 469 -26 590 0 259 55 476 166 649 332 103
98 176 193 199 257 13 37 22 48 38 48 87 0 195 72 355 237 315 324 425 670
317 1003 -44 137 -119 258 -231 377 -85 89 -132 116 -204 117 l-53 1 0 135 c0
207 -36 307 -149 421 -119 119 -303 188 -568 212 l-132 12 75 85 c536 604 841
1103 931 1522 25 116 24 329 -2 418 -25 90 -85 205 -139 273 -91 110 -263 222
-427 276 -187 61 -386 40 -556 -60 -85 -50 -248 -217 -322 -329 -127 -194
-266 -505 -367 -825 -38 -122 -48 -145 -55 -125 -42 140 -131 400 -171 500
-66 163 -206 443 -275 550 -159 245 -401 382 -619 350z"/>
<path d="M7600 3642 c-349 -354 -630 -563 -1020 -761 -475 -241 -967 -375
-1585 -433 -196 -18 -1670 -18 -1875 0 -667 59 -1074 188 -1420 448 -217 163
-569 568 -758 870 l-43 69 6 -270 c9 -377 33 -488 171 -775 406 -844 1446
-1802 2518 -2321 729 -352 1447 -508 2120 -460 464 33 870 130 1188 284 245
118 393 223 568 403 326 336 505 777 550 1353 24 318 -2 714 -75 1131 -29 164
-138 660 -145 660 -3 0 -93 -89 -200 -198z"/>
</g>
</svg>
